<svg id="visual" viewBox="0 0 960 100" width="960" height="100" xmlns="http://www.w3.org/2000/svg" xmlns:xlink="http://www.w3.org/1999/xlink" version="1.1"><rect x="0" y="0" width="960" height="100" fill="#FFF"></rect><path d="M0 34L80 24L160 47L240 21L320 51L400 49L480 35L560 49L640 9L720 44L800 26L880 39L960 13L960 101L880 101L800 101L720 101L640 101L560 101L480 101L400 101L320 101L240 101L160 101L80 101L0 101Z" fill="#8a9edd"></path><path d="M0 46L80 51L160 37L240 52L320 28L400 24L480 20L560 35L640 21L720 24L800 34L880 21L960 21L960 101L880 101L800 101L720 101L640 101L560 101L480 101L400 101L320 101L240 101L160 101L80 101L0 101Z" fill="#9fade3"></path><path d="M0 46L80 38L160 54L240 61L320 58L400 41L480 52L560 46L640 34L720 58L800 47L880 52L960 50L960 101L880 101L800 101L720 101L640 101L560 101L480 101L400 101L320 101L240 101L160 101L80 101L0 101Z" fill="#b3bde8"></path><path d="M0 49L80 61L160 57L240 70L320 51L400 50L480 53L560 49L640 57L720 61L800 51L880 68L960 56L960 101L880 101L800 101L720 101L640 101L560 101L480 101L400 101L320 101L240 101L160 101L80 101L0 101Z" fill="#c6cdee"></path><path d="M0 58L80 67L160 71L240 72L320 81L400 65L480 75L560 56L640 56L720 73L800 73L880 63L960 61L960 101L880 101L800 101L720 101L640 101L560 101L480 101L400 101L320 101L240 101L160 101L80 101L0 101Z" fill="#d9ddf4"></path><path d="M0 86L80 74L160 85L240 80L320 76L400 87L480 80L560 88L640 66L720 68L800 80L880 72L960 81L960 101L880 101L800 101L720 101L640 101L560 101L480 101L400 101L320 101L240 101L160 101L80 101L0 101Z" fill="#eceef9"></path><path d="M0 80L80 92L160 79L240 82L320 80L400 91L480 78L560 78L640 94L720 88L800 91L880 91L960 85L960 101L880 101L800 101L720 101L640 101L560 101L480 101L400 101L320 101L240 101L160 101L80 101L0 101Z" fill="#ffffff"></path></svg>