<svg id="visual" viewBox="0 0 960 300" width="960" height="300" xmlns="http://www.w3.org/2000/svg" xmlns:xlink="http://www.w3.org/1999/xlink" version="1.1"><rect x="0" y="0" width="960" height="300" fill="#18c988"></rect><path d="M0 148L20 147.2C40 146.3 80 144.7 120 141.5C160 138.3 200 133.7 240 129.7C280 125.7 320 122.3 360 121.5C400 120.7 440 122.3 480 126.8C520 131.3 560 138.7 600 145.2C640 151.7 680 157.3 720 158.3C760 159.3 800 155.7 840 148.3C880 141 920 130 940 124.5L960 119L960 301L940 301C920 301 880 301 840 301C800 301 760 301 720 301C680 301 640 301 600 301C560 301 520 301 480 301C440 301 400 301 360 301C320 301 280 301 240 301C200 301 160 301 120 301C80 301 40 301 20 301L0 301Z" fill="#cccccc"></path><path d="M0 188L20 184.3C40 180.7 80 173.3 120 171.3C160 169.3 200 172.7 240 169.2C280 165.7 320 155.3 360 155C400 154.7 440 164.3 480 169.8C520 175.3 560 176.7 600 173.3C640 170 680 162 720 158.7C760 155.3 800 156.7 840 158.8C880 161 920 164 940 165.5L960 167L960 301L940 301C920 301 880 301 840 301C800 301 760 301 720 301C680 301 640 301 600 301C560 301 520 301 480 301C440 301 400 301 360 301C320 301 280 301 240 301C200 301 160 301 120 301C80 301 40 301 20 301L0 301Z" fill="#d6d6d6"></path><path d="M0 191L20 193.3C40 195.7 80 200.3 120 201.7C160 203 200 201 240 201C280 201 320 203 360 205.2C400 207.3 440 209.7 480 207.5C520 205.3 560 198.7 600 197.3C640 196 680 200 720 201.7C760 203.3 800 202.7 840 203.3C880 204 920 206 940 207L960 208L960 301L940 301C920 301 880 301 840 301C800 301 760 301 720 301C680 301 640 301 600 301C560 301 520 301 480 301C440 301 400 301 360 301C320 301 280 301 240 301C200 301 160 301 120 301C80 301 40 301 20 301L0 301Z" fill="#e0e0e0"></path><path d="M0 219L20 220C40 221 80 223 120 222.8C160 222.7 200 220.3 240 218.8C280 217.3 320 216.7 360 219.2C400 221.7 440 227.3 480 225.3C520 223.3 560 213.7 600 211.3C640 209 680 214 720 213.3C760 212.7 800 206.3 840 209.2C880 212 920 224 940 230L960 236L960 301L940 301C920 301 880 301 840 301C800 301 760 301 720 301C680 301 640 301 600 301C560 301 520 301 480 301C440 301 400 301 360 301C320 301 280 301 240 301C200 301 160 301 120 301C80 301 40 301 20 301L0 301Z" fill="#eaeaea"></path><path d="M0 239L20 237C40 235 80 231 120 231C160 231 200 235 240 237.2C280 239.3 320 239.7 360 241C400 242.3 440 244.7 480 243C520 241.3 560 235.7 600 233.7C640 231.7 680 233.3 720 236.8C760 240.3 800 245.7 840 244.7C880 243.7 920 236.3 940 232.7L960 229L960 301L940 301C920 301 880 301 840 301C800 301 760 301 720 301C680 301 640 301 600 301C560 301 520 301 480 301C440 301 400 301 360 301C320 301 280 301 240 301C200 301 160 301 120 301C80 301 40 301 20 301L0 301Z" fill="#f5f5f5"></path><path d="M0 258L20 259.3C40 260.7 80 263.3 120 264.3C160 265.3 200 264.7 240 265.3C280 266 320 268 360 268.3C400 268.7 440 267.3 480 264.7C520 262 560 258 600 261C640 264 680 274 720 278.3C760 282.7 800 281.3 840 280.3C880 279.3 920 278.7 940 278.3L960 278L960 301L940 301C920 301 880 301 840 301C800 301 760 301 720 301C680 301 640 301 600 301C560 301 520 301 480 301C440 301 400 301 360 301C320 301 280 301 240 301C200 301 160 301 120 301C80 301 40 301 20 301L0 301Z" fill="#ffffff"></path></svg>