<svg id="visual" viewBox="0 0 960 300" width="960" height="300" xmlns="http://www.w3.org/2000/svg" xmlns:xlink="http://www.w3.org/1999/xlink" version="1.1"><rect x="0" y="0" width="960" height="300" fill="#FFFFFF"></rect><path d="M0 181L26.7 183C53.3 185 106.7 189 160 177.2C213.3 165.3 266.7 137.7 320 130.5C373.3 123.3 426.7 136.7 480 151C533.3 165.3 586.7 180.7 640 192.3C693.3 204 746.7 212 800 206.2C853.3 200.3 906.7 180.7 933.3 170.8L960 161L960 301L933.3 301C906.7 301 853.3 301 800 301C746.7 301 693.3 301 640 301C586.7 301 533.3 301 480 301C426.7 301 373.3 301 320 301C266.7 301 213.3 301 160 301C106.7 301 53.3 301 26.7 301L0 301Z" fill="#91C6E7" stroke-linecap="round" stroke-linejoin="miter"></path></svg>